<svg xmlns="http://www.w3.org/2000/svg" xmlns:xlink="http://www.w3.org/1999/xlink" width="500" zoomAndPan="magnify" viewBox="0 0 375 374.999991" height="500" preserveAspectRatio="xMidYMid meet" version="1.0"><defs><g/><clipPath id="b841b6fc28"><path d="M 198 42 L 275.644531 42 L 275.644531 145 L 198 145 Z M 198 42 " clip-rule="nonzero"/></clipPath><clipPath id="70f7916898"><path d="M 190 145 L 259 145 L 259 193.773438 L 190 193.773438 Z M 190 145 " clip-rule="nonzero"/></clipPath><clipPath id="aff39b4551"><path d="M 99.394531 82 L 188 82 L 188 193.773438 L 99.394531 193.773438 Z M 99.394531 82 " clip-rule="nonzero"/></clipPath><clipPath id="d43e7f083f"><path d="M 132 18.273438 L 247 18.273438 L 247 79 L 132 79 Z M 132 18.273438 " clip-rule="nonzero"/></clipPath></defs><path fill="#fcd965" d="M 181.996094 185.273438 C 182.078125 186.027344 181.777344 186.765625 181.285156 187.316406 C 180.832031 187.824219 180.1875 188.179688 179.519531 188.261719 C 179.394531 188.277344 179.285156 188.289062 179.164062 188.289062 L 108.199219 188.289062 C 106.582031 188.289062 105.1875 186.917969 105.363281 185.273438 L 112.757812 116.703125 C 112.90625 115.304688 114.113281 114.25 115.578125 114.25 L 171.785156 114.25 C 173.246094 114.25 174.453125 115.304688 174.605469 116.703125 L 180.542969 171.835938 L 166.949219 171.835938 C 165.445312 171.835938 164.214844 173.070312 164.214844 174.578125 C 164.214844 176.085938 165.445312 177.320312 166.949219 177.320312 L 181.132812 177.320312 C 181.132812 177.320312 181.996094 185.257812 181.996094 185.273438 " fill-opacity="1" fill-rule="nonzero"/><path fill="#f35e52" d="M 249.25 190.6875 C 245.882812 190.785156 217.574219 190.769531 191.917969 190.742188 C 191.972656 190.621094 192.027344 190.496094 192.070312 190.359375 C 192.125 190.210938 192.179688 190.058594 192.234375 189.90625 C 192.289062 189.769531 192.328125 189.632812 192.371094 189.480469 C 192.496094 189.085938 192.589844 188.6875 192.671875 188.289062 C 192.878906 187.382812 192.972656 186.464844 192.972656 185.546875 C 192.972656 185.066406 192.945312 184.574219 192.890625 184.09375 L 185.5 115.523438 C 184.746094 108.546875 178.847656 103.28125 171.785156 103.28125 L 166.949219 103.28125 L 166.949219 98.566406 C 166.949219 86.800781 157.695312 77.230469 146.335938 77.230469 L 141.023438 77.230469 C 140.328125 77.230469 139.628906 77.273438 138.945312 77.355469 C 138.847656 77.367188 138.753906 77.367188 138.65625 77.382812 C 138.574219 77.394531 138.492188 77.410156 138.421875 77.421875 C 138.355469 77.421875 138.285156 77.421875 138.21875 77.449219 C 137.835938 77.492188 137.464844 77.558594 137.082031 77.640625 C 136.65625 77.722656 136.234375 77.832031 135.820312 77.945312 L 135.820312 77.929688 L 138.367188 63 L 195.175781 63 C 195.410156 63.617188 195.65625 64.246094 195.945312 64.890625 C 196.3125 65.78125 196.75 66.699219 197.246094 67.632812 C 198.667969 70.292969 200.542969 73.050781 203.046875 75.765625 L 201.242188 93.164062 C 200.832031 97.058594 202.335938 102.074219 204.800781 105.089844 L 238.378906 146.238281 C 240.269531 148.570312 243.0625 149.898438 246.058594 149.898438 C 247.960938 149.898438 249.796875 149.324219 251.371094 148.320312 L 254.902344 185.546875 C 254.902344 185.546875 255.585938 190.511719 249.25 190.6875 " fill-opacity="1" fill-rule="nonzero"/><path fill="#f35e52" d="M 244.019531 70.949219 L 244.019531 70.976562 C 243.527344 70.539062 243.007812 70.117188 242.445312 69.71875 C 242.0625 69.445312 241.664062 69.183594 241.242188 68.9375 C 239.078125 67.648438 236.601562 66.753906 234.339844 66.5625 L 215.5625 65.042969 C 214.902344 64.371094 214.328125 63.683594 213.792969 63 L 243.265625 63 L 244.019531 70.949219 " fill-opacity="1" fill-rule="nonzero"/><g clip-path="url(#b841b6fc28)"><path fill="#2c3d53" d="M 274.09375 116.691406 L 241.160156 75.859375 C 239.613281 73.953125 236.367188 72.238281 233.902344 72.035156 L 213.601562 70.386719 C 213.480469 70.375 213.355469 70.375 213.234375 70.375 L 213.191406 70.375 C 202.664062 60.847656 203.445312 49.601562 204.488281 47.699219 C 205.484375 46.75 205.648438 45.1875 204.800781 44.050781 C 203.898438 42.84375 202.1875 42.597656 200.96875 43.5 C 198.929688 45.039062 198.519531 48.699219 198.449219 50.753906 C 198.355469 53.851562 198.859375 64.355469 208.8125 73.804688 C 208.757812 74.007812 208.703125 74.230469 208.6875 74.445312 L 206.691406 93.753906 C 206.429688 96.191406 207.484375 99.714844 209.042969 101.621094 L 242.636719 142.78125 C 243.511719 143.867188 244.785156 144.414062 246.058594 144.414062 C 247.058594 144.414062 248.058594 144.085938 248.894531 143.386719 L 273.464844 123.011719 C 275.355469 121.433594 275.640625 118.609375 274.09375 116.691406 M 246.210938 138.492188 L 213.289062 98.152344 C 212.660156 97.386719 212.027344 95.300781 212.136719 94.316406 L 214.042969 75.929688 L 233.453125 77.503906 C 234.425781 77.585938 236.300781 78.5625 236.902344 79.316406 L 269.234375 119.390625 L 246.210938 138.492188 " fill-opacity="1" fill-rule="nonzero"/></g><path fill="#e4eef6" d="M 269.234375 119.390625 L 246.210938 138.492188 L 213.289062 98.15625 C 212.65625 97.386719 212.027344 95.300781 212.136719 94.316406 L 214.039062 75.929688 L 233.453125 77.503906 C 234.421875 77.585938 236.296875 78.5625 236.902344 79.316406 L 269.234375 119.390625 " fill-opacity="1" fill-rule="nonzero"/><path fill="#2c3d53" d="M 221.707031 82.714844 C 220.195312 82.714844 218.96875 83.945312 218.96875 85.457031 C 218.96875 86.972656 220.195312 88.199219 221.707031 88.199219 C 223.21875 88.199219 224.445312 86.972656 224.445312 85.457031 C 224.445312 83.945312 223.21875 82.714844 221.707031 82.714844 " fill-opacity="1" fill-rule="nonzero"/><g clip-path="url(#70f7916898)"><path fill="#2c3d53" d="M 254.523438 145.839844 L 252.382812 147.617188 C 251.476562 148.367188 250.464844 148.941406 249.386719 149.324219 L 251.765625 171.835938 L 225.8125 171.835938 C 224.300781 171.835938 223.074219 173.0625 223.074219 174.578125 C 223.074219 176.09375 224.300781 177.320312 225.8125 177.320312 L 252.34375 177.320312 L 253.175781 185.175781 C 253.347656 186.800781 252.066406 188.289062 250.429688 188.289062 L 192.675781 188.289062 C 192.269531 190.265625 191.421875 192.140625 190.1875 193.773438 L 250.429688 193.773438 C 255.324219 193.773438 259.136719 189.5 258.621094 184.601562 L 254.523438 145.839844 " fill-opacity="1" fill-rule="nonzero"/></g><path fill="#d24d44" d="M 253.011719 183.667969 C 252.644531 184.738281 251.632812 185.546875 250.425781 185.546875 L 192.972656 185.546875 C 192.972656 186.464844 192.878906 187.382812 192.671875 188.289062 L 250.425781 188.289062 C 251.789062 188.289062 252.898438 187.257812 253.144531 185.984375 C 253.191406 185.722656 253.203125 185.453125 253.175781 185.175781 L 253.078125 184.277344 L 253.011719 183.667969 " fill-opacity="1" fill-rule="nonzero"/><path fill="#623c44" d="M 253.082031 184.277344 L 253.175781 185.175781 C 253.203125 185.453125 253.191406 185.722656 253.140625 185.984375 C 253.191406 185.722656 253.207031 185.453125 253.179688 185.175781 L 253.082031 184.277344 " fill-opacity="1" fill-rule="nonzero"/><path fill="#fdf8e9" d="M 172.34375 114.25 L 115.042969 114.25 C 113.550781 114.25 112.320312 115.304688 112.167969 116.703125 L 104.632812 185.273438 C 104.589844 185.699219 104.644531 186.109375 104.800781 186.480469 L 112.167969 119.445312 C 112.214844 119.019531 112.363281 118.625 112.585938 118.28125 L 112.757812 116.703125 C 112.90625 115.304688 114.113281 114.25 115.578125 114.25 L 171.78125 114.25 C 173.246094 114.25 174.453125 115.304688 174.601562 116.703125 L 174.765625 118.230469 C 175.011719 118.585938 175.171875 119 175.21875 119.445312 L 180.96875 171.835938 L 181.277344 171.835938 L 175.21875 116.703125 C 175.066406 115.304688 173.835938 114.25 172.34375 114.25 " fill-opacity="1" fill-rule="nonzero"/><path fill="#fae497" d="M 171.785156 114.25 L 115.578125 114.25 C 114.113281 114.25 112.90625 115.304688 112.757812 116.707031 L 112.585938 118.28125 C 113.097656 117.503906 114.003906 116.992188 115.042969 116.992188 L 172.34375 116.992188 C 173.359375 116.992188 174.25 117.480469 174.765625 118.230469 L 174.601562 116.707031 C 174.453125 115.304688 173.246094 114.25 171.785156 114.25 " fill-opacity="1" fill-rule="nonzero"/><path fill="#d9ceab" d="M 105.527344 183.738281 L 105.363281 185.273438 C 105.355469 185.371094 105.347656 185.464844 105.347656 185.558594 C 105.347656 185.464844 105.355469 185.371094 105.363281 185.273438 L 105.53125 183.738281 C 105.53125 183.738281 105.527344 183.738281 105.527344 183.738281 M 181.832031 183.710938 C 181.832031 183.710938 181.828125 183.714844 181.828125 183.71875 C 181.902344 184.398438 181.957031 184.925781 181.984375 185.152344 C 181.957031 184.925781 181.902344 184.394531 181.832031 183.710938 " fill-opacity="1" fill-rule="nonzero"/><path fill="#d6b856" d="M 181.828125 183.71875 C 181.691406 184.03125 181.5 184.316406 181.28125 184.574219 C 180.832031 185.082031 180.1875 185.4375 179.515625 185.519531 C 179.394531 185.535156 179.285156 185.546875 179.160156 185.546875 L 108.199219 185.546875 C 107.007812 185.546875 105.925781 184.792969 105.53125 183.738281 L 105.363281 185.273438 C 105.355469 185.371094 105.347656 185.464844 105.347656 185.558594 C 105.351562 187.074219 106.675781 188.289062 108.199219 188.289062 L 179.160156 188.289062 C 179.285156 188.289062 179.394531 188.277344 179.515625 188.261719 C 180.1875 188.179688 180.832031 187.824219 181.28125 187.316406 C 181.722656 186.828125 182.007812 186.1875 182.007812 185.519531 C 182.007812 185.4375 182.003906 185.355469 181.996094 185.273438 C 181.996094 185.273438 181.988281 185.230469 181.980469 185.152344 C 181.957031 184.925781 181.902344 184.398438 181.828125 183.71875 " fill-opacity="1" fill-rule="nonzero"/><path fill="#5f6f7f" d="M 212.273438 92.957031 L 212.136719 94.316406 L 212.277344 92.96875 C 212.277344 92.964844 212.273438 92.960938 212.273438 92.957031 " fill-opacity="1" fill-rule="nonzero"/><path fill="#c1c7ce" d="M 212.480469 93.714844 L 212.273438 95.699219 C 212.257812 95.628906 212.242188 95.554688 212.230469 95.484375 C 212.421875 96.472656 212.855469 97.625 213.289062 98.15625 L 246.210938 138.492188 L 269.234375 119.390625 L 267.90625 120.488281 L 266.582031 118.847656 L 246.210938 135.75 L 213.289062 95.414062 C 212.996094 95.050781 212.699219 94.402344 212.480469 93.714844 " fill-opacity="1" fill-rule="nonzero"/><path fill="#f4f8fc" d="M 214.039062 75.929688 L 212.277344 92.96875 C 212.332031 93.214844 212.398438 93.46875 212.480469 93.714844 L 214.039062 78.671875 L 233.453125 80.246094 C 234.421875 80.328125 236.296875 81.304688 236.902344 82.058594 L 266.582031 118.847656 L 267.90625 117.746094 L 269.234375 119.390625 L 236.902344 79.316406 C 236.296875 78.5625 234.421875 77.585938 233.453125 77.503906 L 214.039062 75.929688 " fill-opacity="1" fill-rule="nonzero"/><path fill="#929ea9" d="M 212.140625 94.3125 C 212.101562 94.621094 212.140625 95.03125 212.230469 95.484375 C 212.164062 95.148438 212.128906 94.832031 212.125 94.5625 C 212.125 94.476562 212.128906 94.390625 212.140625 94.3125 " fill-opacity="1" fill-rule="nonzero"/><path fill="#e3e7e9" d="M 267.90625 117.746094 L 266.582031 118.847656 L 267.90625 120.488281 L 269.234375 119.390625 L 267.90625 117.746094 M 212.277344 92.96875 L 212.136719 94.316406 C 212.128906 94.390625 212.125 94.476562 212.125 94.566406 C 212.125 94.832031 212.164062 95.148438 212.230469 95.484375 C 212.242188 95.554688 212.257812 95.628906 212.273438 95.699219 L 212.480469 93.714844 C 212.398438 93.46875 212.332031 93.214844 212.277344 92.96875 " fill-opacity="1" fill-rule="nonzero"/><path fill="#f68179" d="M 137.082031 77.640625 C 136.65625 77.710938 136.234375 77.808594 135.820312 77.929688 L 135.820312 77.945312 C 136.234375 77.835938 136.65625 77.722656 137.082031 77.640625 " fill-opacity="1" fill-rule="nonzero"/><path fill="#f68179" d="M 195.945312 64.890625 L 142.460938 64.890625 C 141.039062 64.890625 139.859375 65.972656 139.710938 67.402344 L 138.65625 77.382812 C 138.753906 77.367188 138.847656 77.367188 138.941406 77.355469 L 139.710938 70.140625 C 139.859375 68.714844 141.039062 67.632812 142.460938 67.632812 L 197.242188 67.632812 C 196.75 66.699219 196.3125 65.78125 195.945312 64.890625 " fill-opacity="1" fill-rule="nonzero"/><path fill="#f68179" d="M 214.027344 63 L 213.792969 63 C 214.328125 63.683594 214.902344 64.371094 215.5625 65.042969 L 234.339844 66.5625 C 236.550781 66.75 238.964844 67.605469 241.09375 68.847656 C 241.019531 68.804688 240.945312 68.757812 240.871094 68.714844 L 240.734375 67.398438 C 240.582031 65.972656 239.40625 64.890625 237.984375 64.890625 L 215.453125 64.890625 C 215.371094 64.808594 214.753906 63.984375 214.027344 63 " fill-opacity="1" fill-rule="nonzero"/><path fill="#fef5f6" d="M 241.09375 68.847656 C 241.140625 68.878906 241.191406 68.910156 241.242188 68.9375 C 241.191406 68.90625 241.140625 68.878906 241.09375 68.847656 " fill-opacity="1" fill-rule="nonzero"/><path fill="#f68179" d="M 242.445312 69.71875 C 243.007812 70.117188 243.527344 70.539062 244.019531 70.976562 L 244.019531 70.949219 C 243.539062 70.511719 243.007812 70.101562 242.445312 69.71875 " fill-opacity="1" fill-rule="nonzero"/><g clip-path="url(#aff39b4551)"><path fill="#2c3d53" d="M 187.441406 184.683594 L 180.050781 116.113281 C 179.597656 111.933594 176.039062 108.765625 171.78125 108.765625 L 161.476562 108.765625 L 161.476562 98.566406 C 161.476562 89.832031 154.683594 82.714844 146.335938 82.714844 L 141.023438 82.714844 C 132.671875 82.714844 125.882812 89.832031 125.882812 98.566406 L 125.882812 108.765625 L 115.578125 108.765625 C 111.320312 108.765625 107.761719 111.933594 107.308594 116.113281 L 99.917969 184.683594 C 99.394531 189.539062 103.257812 193.773438 108.199219 193.773438 L 179.160156 193.773438 C 184.105469 193.773438 187.964844 189.539062 187.441406 184.683594 Z M 131.359375 98.566406 C 131.359375 92.847656 135.699219 88.199219 141.023438 88.199219 L 146.335938 88.199219 C 151.660156 88.199219 156 92.847656 156 98.566406 L 156 108.765625 L 131.359375 108.765625 Z M 181.285156 187.316406 C 180.832031 187.824219 180.1875 188.179688 179.515625 188.261719 C 179.394531 188.277344 179.285156 188.289062 179.160156 188.289062 L 108.199219 188.289062 C 106.582031 188.289062 105.1875 186.917969 105.363281 185.273438 L 112.757812 116.707031 C 112.90625 115.304688 114.113281 114.25 115.578125 114.25 L 171.78125 114.25 C 173.246094 114.25 174.453125 115.304688 174.601562 116.707031 L 180.542969 171.835938 L 166.949219 171.835938 C 165.445312 171.835938 164.214844 173.070312 164.214844 174.578125 C 164.214844 176.085938 165.445312 177.320312 166.949219 177.320312 L 181.132812 177.320312 C 181.132812 177.320312 181.996094 185.257812 181.996094 185.273438 C 182.078125 186.027344 181.777344 186.765625 181.285156 187.316406 " fill-opacity="1" fill-rule="nonzero"/></g><g clip-path="url(#d43e7f083f)"><path fill="#2c3d53" d="M 195.492188 63.859375 C 195.289062 63.347656 195.101562 62.84375 194.929688 62.347656 C 194.914062 62.304688 194.894531 62.257812 194.878906 62.214844 C 194.679688 61.636719 194.503906 61.070312 194.339844 60.515625 C 194.332031 60.480469 194.324219 60.449219 194.3125 60.414062 C 194.214844 60.074219 194.121094 59.734375 194.035156 59.40625 L 168.320312 59.40625 L 168.320312 40.679688 C 168.320312 31.347656 176.195312 23.757812 185.875 23.757812 L 194.570312 23.757812 C 204.25 23.757812 212.125 31.347656 212.125 40.679688 L 212.125 59.40625 L 211.484375 59.40625 C 212.386719 61.175781 213.660156 63.042969 215.417969 64.890625 L 237.988281 64.890625 C 239.402344 64.890625 240.582031 65.96875 240.734375 67.402344 L 240.875 68.722656 C 240.902344 68.738281 240.929688 68.757812 240.960938 68.777344 C 241.367188 69.007812 241.765625 69.25 242.152344 69.511719 C 242.191406 69.539062 242.230469 69.566406 242.269531 69.59375 C 242.644531 69.851562 243.007812 70.113281 243.355469 70.394531 C 243.449219 70.46875 243.53125 70.550781 243.625 70.628906 C 243.910156 70.867188 244.195312 71.109375 244.453125 71.363281 C 244.605469 71.515625 244.738281 71.671875 244.882812 71.828125 C 245.058594 72.019531 245.25 72.203125 245.40625 72.398438 L 246.972656 74.339844 L 246.179688 66.824219 C 245.734375 62.605469 242.199219 59.40625 237.988281 59.40625 L 217.601562 59.40625 L 217.601562 40.679688 C 217.601562 28.324219 207.269531 18.273438 194.570312 18.273438 L 185.875 18.273438 C 173.175781 18.273438 162.84375 28.324219 162.84375 40.679688 L 162.84375 59.40625 L 142.457031 59.40625 C 138.246094 59.40625 134.710938 62.605469 134.265625 66.824219 L 132.988281 78.917969 C 134.761719 78.140625 136.667969 77.617188 138.65625 77.382812 L 139.710938 67.402344 C 139.863281 65.96875 141.042969 64.890625 142.457031 64.890625 L 195.914062 64.890625 C 195.832031 64.695312 195.757812 64.503906 195.675781 64.304688 C 195.617188 64.15625 195.554688 64.007812 195.492188 63.859375 " fill-opacity="1" fill-rule="nonzero"/></g><g fill="#000000" fill-opacity="1"><g transform="translate(7.046525, 288.455797)"><g><path d="M 49.046875 2.625 C 46.242188 2.625 44.0625 2.195312 42.5 1.34375 C 40.945312 0.488281 39.847656 -0.835938 39.203125 -2.640625 C 38.566406 -4.453125 38.25 -6.875 38.25 -9.90625 L 38.25 -32.359375 L 23.671875 0 L 22.515625 0 L 7.34375 -32.953125 L 7.34375 0 L 5.015625 0 L 5.015625 -38.484375 L 10.546875 -38.484375 L 24.546875 -8.15625 L 38.25 -38.484375 L 43.5 -38.484375 L 43.5 -9.90625 C 43.5 -6.289062 43.953125 -3.492188 44.859375 -1.515625 C 45.773438 0.460938 47.171875 1.453125 49.046875 1.453125 Z M 49.046875 2.625 "/></g></g></g><g fill="#000000" fill-opacity="1"><g transform="translate(56.661029, 288.455797)"><g><path d="M 36.265625 0.296875 C 34.398438 0.296875 32.550781 -0.21875 30.71875 -1.25 C 28.894531 -2.28125 27.441406 -4.289062 26.359375 -7.28125 L 24.90625 -11.078125 L 8.578125 -11.078125 L 3.90625 0 L 1.28125 0 L 17.609375 -38.484375 L 19.359375 -38.484375 L 32.1875 -7.28125 C 33.15625 -5.03125 34.066406 -3.488281 34.921875 -2.65625 C 35.785156 -1.820312 37.015625 -1.328125 38.609375 -1.171875 L 38.609375 0 C 37.898438 0.195312 37.117188 0.296875 36.265625 0.296875 Z M 23.734375 -13.40625 L 16.734375 -30.328125 L 9.453125 -13.40625 Z M 23.734375 -13.40625 "/></g></g></g><g fill="#000000" fill-opacity="1"><g transform="translate(93.449218, 288.455797)"><g><path d="M 7 -30.90625 C 5.988281 -32.34375 5.128906 -33.46875 4.421875 -34.28125 C 3.722656 -35.101562 2.898438 -35.796875 1.953125 -36.359375 C 1.003906 -36.921875 -0.128906 -37.238281 -1.453125 -37.3125 L -1.453125 -38.484375 L 3.796875 -38.484375 C 5.734375 -38.484375 7.363281 -37.910156 8.6875 -36.765625 C 10.007812 -35.617188 11.289062 -34.054688 12.53125 -32.078125 L 21 -18.953125 L 33.1875 -38.484375 L 35.796875 -38.484375 L 22.15625 -16.328125 L 22.15625 0 L 16.90625 0 L 16.90625 -15.921875 Z M 7 -30.90625 "/></g></g></g><g fill="#000000" fill-opacity="1"><g transform="translate(129.829288, 288.455797)"><g><path d="M 10.4375 0 C 9 0 7.921875 -0.179688 7.203125 -0.546875 C 6.484375 -0.921875 5.96875 -1.59375 5.65625 -2.5625 C 5.34375 -3.539062 5.1875 -5.019531 5.1875 -7 L 5.1875 -38.484375 L 10.4375 -38.484375 L 10.4375 -7 C 10.4375 -5.019531 10.707031 -3.550781 11.25 -2.59375 C 11.800781 -1.644531 12.890625 -1.171875 14.515625 -1.171875 L 15.6875 -1.171875 L 15.6875 0 Z M 10.4375 0 "/></g></g></g><g fill="#000000" fill-opacity="1"><g transform="translate(146.211976, 288.455797)"><g><path d="M 22.390625 1.171875 C 18.578125 1.171875 15.164062 0.238281 12.15625 -1.625 C 9.144531 -3.5 6.789062 -6.035156 5.09375 -9.234375 C 3.40625 -12.441406 2.5625 -15.972656 2.5625 -19.828125 C 2.5625 -23.515625 3.300781 -26.863281 4.78125 -29.875 C 6.257812 -32.894531 8.367188 -35.28125 11.109375 -37.03125 C 13.847656 -38.78125 17.023438 -39.65625 20.640625 -39.65625 C 23.984375 -39.65625 26.867188 -39.21875 29.296875 -38.34375 C 31.734375 -37.46875 33.515625 -36.347656 34.640625 -34.984375 C 35.265625 -34.210938 35.660156 -33.179688 35.828125 -31.890625 C 36.003906 -30.609375 36.09375 -29.015625 36.09375 -27.109375 L 34.921875 -27.109375 C 34.191406 -30.535156 32.796875 -33.09375 30.734375 -34.78125 C 28.671875 -36.46875 25.890625 -37.3125 22.390625 -37.3125 C 19.242188 -37.3125 16.617188 -36.484375 14.515625 -34.828125 C 12.421875 -33.179688 10.875 -31.035156 9.875 -28.390625 C 8.882812 -25.753906 8.390625 -22.898438 8.390625 -19.828125 C 8.390625 -13.253906 9.671875 -8.5 12.234375 -5.5625 C 14.804688 -2.632812 18.191406 -1.171875 22.390625 -1.171875 C 24.367188 -1.171875 26.054688 -1.34375 27.453125 -1.6875 C 28.859375 -2.039062 30.1875 -2.546875 31.4375 -3.203125 L 31.4375 -13.359375 C 31.4375 -14.679688 31.648438 -15.828125 32.078125 -16.796875 C 32.503906 -17.765625 33.425781 -18.566406 34.84375 -19.203125 C 36.257812 -19.847656 38.328125 -20.171875 41.046875 -20.171875 L 41.046875 -19.015625 C 39.296875 -19.015625 38.128906 -18.566406 37.546875 -17.671875 C 36.960938 -16.773438 36.671875 -15.375 36.671875 -13.46875 L 36.671875 -2.5 C 34.578125 -1.21875 32.382812 -0.285156 30.09375 0.296875 C 27.800781 0.878906 25.234375 1.171875 22.390625 1.171875 Z M 22.390625 1.171875 "/></g></g></g><g fill="#000000" fill-opacity="1"><g transform="translate(187.955807, 288.455797)"><g><path d="M 31.84375 0.578125 C 29.78125 0.578125 27.976562 -0.03125 26.4375 -1.25 C 24.90625 -2.476562 23.207031 -4.6875 21.34375 -7.875 L 15.515625 -17.78125 L 11.421875 -17.78125 L 11.421875 0 L 6.1875 0 L 6.1875 -31.484375 C 6.1875 -33.472656 5.910156 -34.941406 5.359375 -35.890625 C 4.816406 -36.835938 3.726562 -37.3125 2.09375 -37.3125 L 0.9375 -37.3125 L 0.9375 -38.484375 L 16.09375 -38.484375 C 19.789062 -38.484375 23.144531 -37.753906 26.15625 -36.296875 C 29.164062 -34.835938 30.671875 -32.066406 30.671875 -27.984375 C 30.671875 -22.816406 27.5625 -19.515625 21.34375 -18.078125 L 27.46875 -7.875 C 28.90625 -5.457031 30.195312 -3.773438 31.34375 -2.828125 C 32.488281 -1.878906 33.820312 -1.328125 35.34375 -1.171875 L 35.34375 0 C 34.988281 0.15625 34.488281 0.289062 33.84375 0.40625 C 33.207031 0.519531 32.539062 0.578125 31.84375 0.578125 Z M 15.796875 -19.828125 C 17.003906 -19.828125 18.316406 -20.117188 19.734375 -20.703125 C 21.148438 -21.285156 22.351562 -22.195312 23.34375 -23.4375 C 24.34375 -24.6875 24.84375 -26.203125 24.84375 -27.984375 C 24.84375 -29.890625 24.34375 -31.472656 23.34375 -32.734375 C 22.351562 -34.003906 21.148438 -34.9375 19.734375 -35.53125 C 18.316406 -36.132812 17.003906 -36.4375 15.796875 -36.4375 C 14.441406 -36.4375 12.984375 -36.242188 11.421875 -35.859375 L 11.421875 -20.40625 C 12.984375 -20.019531 14.441406 -19.828125 15.796875 -19.828125 Z M 15.796875 -19.828125 "/></g></g></g><g fill="#000000" fill-opacity="1"><g transform="translate(222.411923, 288.455797)"><g><path d="M 36.265625 0.296875 C 34.398438 0.296875 32.550781 -0.21875 30.71875 -1.25 C 28.894531 -2.28125 27.441406 -4.289062 26.359375 -7.28125 L 24.90625 -11.078125 L 8.578125 -11.078125 L 3.90625 0 L 1.28125 0 L 17.609375 -38.484375 L 19.359375 -38.484375 L 32.1875 -7.28125 C 33.15625 -5.03125 34.066406 -3.488281 34.921875 -2.65625 C 35.785156 -1.820312 37.015625 -1.328125 38.609375 -1.171875 L 38.609375 0 C 37.898438 0.195312 37.117188 0.296875 36.265625 0.296875 Z M 23.734375 -13.40625 L 16.734375 -30.328125 L 9.453125 -13.40625 Z M 23.734375 -13.40625 "/></g></g></g><g fill="#000000" fill-opacity="1"><g transform="translate(259.200102, 288.455797)"><g><path d="M 6.1875 -31.484375 C 6.1875 -33.472656 5.910156 -34.941406 5.359375 -35.890625 C 4.816406 -36.835938 3.726562 -37.3125 2.09375 -37.3125 L 0.9375 -37.3125 L 0.9375 -38.484375 L 16.09375 -38.484375 C 19.820312 -38.484375 23.179688 -37.6875 26.171875 -36.09375 C 29.171875 -34.5 30.671875 -31.410156 30.671875 -26.828125 C 30.671875 -23.796875 29.890625 -21.460938 28.328125 -19.828125 C 26.773438 -18.191406 25.035156 -17.101562 23.109375 -16.5625 C 21.191406 -16.019531 19.4375 -15.75 17.84375 -15.75 L 11.421875 -15.75 L 11.421875 0 L 6.1875 0 Z M 15.796875 -17.78125 C 17.046875 -17.78125 18.367188 -18.097656 19.765625 -18.734375 C 21.160156 -19.378906 22.351562 -20.398438 23.34375 -21.796875 C 24.34375 -23.203125 24.84375 -24.972656 24.84375 -27.109375 C 24.84375 -29.253906 24.34375 -31.023438 23.34375 -32.421875 C 22.351562 -33.816406 21.160156 -34.832031 19.765625 -35.46875 C 18.367188 -36.113281 17.046875 -36.4375 15.796875 -36.4375 C 14.441406 -36.4375 12.984375 -36.242188 11.421875 -35.859375 L 11.421875 -18.375 C 12.984375 -17.976562 14.441406 -17.78125 15.796875 -17.78125 Z M 15.796875 -17.78125 "/></g></g></g><g fill="#000000" fill-opacity="1"><g transform="translate(291.149272, 288.455797)"><g><path d="M 6.1875 -31.484375 C 6.1875 -33.472656 5.910156 -34.941406 5.359375 -35.890625 C 4.816406 -36.835938 3.726562 -37.3125 2.09375 -37.3125 L 0.9375 -37.3125 L 0.9375 -38.484375 L 6.1875 -38.484375 C 7.625 -38.484375 8.703125 -38.296875 9.421875 -37.921875 C 10.140625 -37.554688 10.648438 -36.890625 10.953125 -35.921875 C 11.265625 -34.953125 11.421875 -33.472656 11.421875 -31.484375 L 11.421875 -21 L 28.921875 -21 L 28.921875 -38.484375 L 34.171875 -38.484375 L 34.171875 -7 C 34.171875 -5.019531 34.441406 -3.550781 34.984375 -2.59375 C 35.523438 -1.644531 36.613281 -1.171875 38.25 -1.171875 L 39.421875 -1.171875 L 39.421875 0 L 34.171875 0 C 32.734375 0 31.65625 -0.179688 30.9375 -0.546875 C 30.21875 -0.921875 29.703125 -1.59375 29.390625 -2.5625 C 29.078125 -3.539062 28.921875 -5.019531 28.921875 -7 L 28.921875 -18.65625 L 11.421875 -18.65625 L 11.421875 0 L 6.1875 0 Z M 6.1875 -31.484375 "/></g></g></g><g fill="#000000" fill-opacity="1"><g transform="translate(331.318931, 288.455797)"><g><path d="M 7 -30.90625 C 5.988281 -32.34375 5.128906 -33.46875 4.421875 -34.28125 C 3.722656 -35.101562 2.898438 -35.796875 1.953125 -36.359375 C 1.003906 -36.921875 -0.128906 -37.238281 -1.453125 -37.3125 L -1.453125 -38.484375 L 3.796875 -38.484375 C 5.734375 -38.484375 7.363281 -37.910156 8.6875 -36.765625 C 10.007812 -35.617188 11.289062 -34.054688 12.53125 -32.078125 L 21 -18.953125 L 33.1875 -38.484375 L 35.796875 -38.484375 L 22.15625 -16.328125 L 22.15625 0 L 16.90625 0 L 16.90625 -15.921875 Z M 7 -30.90625 "/></g></g></g><g fill="#000000" fill-opacity="1"><g transform="translate(98.237741, 329.266152)"><g><path d="M 3.140625 -15.984375 C 3.140625 -16.984375 3 -17.722656 2.71875 -18.203125 C 2.445312 -18.691406 1.894531 -18.9375 1.0625 -18.9375 L 0.46875 -18.9375 L 0.46875 -19.53125 L 13.078125 -19.53125 C 14.753906 -19.53125 15.59375 -18.742188 15.59375 -17.171875 L 15.59375 -14.9375 L 15 -14.9375 C 15 -17.207031 13.769531 -18.34375 11.3125 -18.34375 L 5.796875 -18.34375 L 5.796875 -10.65625 L 13.796875 -10.65625 L 13.796875 -9.46875 L 5.796875 -9.46875 L 5.796875 -1.1875 L 10.984375 -1.1875 C 12.335938 -1.1875 13.398438 -1.429688 14.171875 -1.921875 C 14.941406 -2.410156 15.554688 -3.25 16.015625 -4.4375 L 16.609375 -4.296875 L 15.5625 -1.484375 C 15.207031 -0.492188 14.46875 0 13.34375 0 L 3.140625 0 Z M 3.140625 -15.984375 "/></g></g></g><g fill="#000000" fill-opacity="1"><g transform="translate(119.402525, 329.266152)"><g><path d="M 7.84375 0.296875 C 6.425781 0.296875 5.226562 -0.0195312 4.25 -0.65625 C 3.269531 -1.300781 2.535156 -2.171875 2.046875 -3.265625 C 1.566406 -4.359375 1.328125 -5.585938 1.328125 -6.953125 C 1.328125 -8.316406 1.566406 -9.546875 2.046875 -10.640625 C 2.535156 -11.734375 3.269531 -12.597656 4.25 -13.234375 C 5.226562 -13.878906 6.425781 -14.203125 7.84375 -14.203125 C 10.007812 -14.203125 11.441406 -13.859375 12.140625 -13.171875 C 12.472656 -12.835938 12.675781 -12.425781 12.75 -11.9375 C 12.832031 -11.457031 12.875 -10.585938 12.875 -9.328125 L 12.28125 -9.328125 C 12.195312 -10.546875 11.8125 -11.460938 11.125 -12.078125 C 10.4375 -12.703125 9.539062 -13.015625 8.4375 -13.015625 C 7.007812 -13.015625 5.9375 -12.453125 5.21875 -11.328125 C 4.5 -10.203125 4.140625 -8.742188 4.140625 -6.953125 C 4.140625 -5.160156 4.5 -3.703125 5.21875 -2.578125 C 5.9375 -1.453125 7.007812 -0.890625 8.4375 -0.890625 C 9.4375 -0.890625 10.257812 -1.082031 10.90625 -1.46875 C 11.5625 -1.851562 12.164062 -2.445312 12.71875 -3.25 L 13.3125 -2.8125 C 12.664062 -1.707031 11.894531 -0.910156 11 -0.421875 C 10.113281 0.0546875 9.0625 0.296875 7.84375 0.296875 Z M 7.84375 0.296875 "/></g></g></g><g fill="#000000" fill-opacity="1"><g transform="translate(137.40002, 329.266152)"><g><path d="M 7.84375 0.296875 C 6.5 0.296875 5.332031 -0.0195312 4.34375 -0.65625 C 3.363281 -1.300781 2.613281 -2.175781 2.09375 -3.28125 C 1.582031 -4.382812 1.328125 -5.609375 1.328125 -6.953125 C 1.328125 -8.296875 1.582031 -9.519531 2.09375 -10.625 C 2.613281 -11.726562 3.363281 -12.597656 4.34375 -13.234375 C 5.332031 -13.878906 6.5 -14.203125 7.84375 -14.203125 C 9.1875 -14.203125 10.347656 -13.878906 11.328125 -13.234375 C 12.316406 -12.597656 13.066406 -11.726562 13.578125 -10.625 C 14.097656 -9.519531 14.359375 -8.296875 14.359375 -6.953125 C 14.359375 -5.609375 14.097656 -4.382812 13.578125 -3.28125 C 13.066406 -2.175781 12.316406 -1.300781 11.328125 -0.65625 C 10.347656 -0.0195312 9.1875 0.296875 7.84375 0.296875 Z M 7.84375 -0.890625 C 8.570312 -0.890625 9.21875 -1.15625 9.78125 -1.6875 C 10.34375 -2.21875 10.773438 -2.945312 11.078125 -3.875 C 11.390625 -4.800781 11.546875 -5.828125 11.546875 -6.953125 C 11.546875 -8.078125 11.390625 -9.101562 11.078125 -10.03125 C 10.773438 -10.957031 10.34375 -11.6875 9.78125 -12.21875 C 9.21875 -12.75 8.570312 -13.015625 7.84375 -13.015625 C 7.113281 -13.015625 6.46875 -12.75 5.90625 -12.21875 C 5.34375 -11.6875 4.90625 -10.957031 4.59375 -10.03125 C 4.289062 -9.101562 4.140625 -8.078125 4.140625 -6.953125 C 4.140625 -5.828125 4.289062 -4.800781 4.59375 -3.875 C 4.90625 -2.945312 5.34375 -2.21875 5.90625 -1.6875 C 6.46875 -1.15625 7.113281 -0.890625 7.84375 -0.890625 Z M 7.84375 -0.890625 "/></g></g></g><g fill="#000000" fill-opacity="1"><g transform="translate(156.788757, 329.266152)"><g><path d="M 2.578125 -10.359375 C 2.578125 -11.359375 2.4375 -12.097656 2.15625 -12.578125 C 1.882812 -13.066406 1.332031 -13.3125 0.5 -13.3125 L -0.09375 -13.3125 L -0.09375 -13.90625 L 2.578125 -13.90625 C 3.304688 -13.90625 3.863281 -13.804688 4.25 -13.609375 C 4.632812 -13.410156 4.914062 -13.113281 5.09375 -12.71875 L 5.234375 -12.71875 C 5.648438 -13.132812 6.1875 -13.484375 6.84375 -13.765625 C 7.507812 -14.054688 8.253906 -14.203125 9.078125 -14.203125 C 9.910156 -14.203125 10.625 -14.046875 11.21875 -13.734375 C 11.8125 -13.429688 12.285156 -12.898438 12.640625 -12.140625 C 13.148438 -12.785156 13.800781 -13.289062 14.59375 -13.65625 C 15.394531 -14.019531 16.222656 -14.203125 17.078125 -14.203125 C 18.335938 -14.203125 19.34375 -13.804688 20.09375 -13.015625 C 20.84375 -12.234375 21.21875 -10.851562 21.21875 -8.875 L 21.21875 0 L 18.5625 0 L 18.5625 -8.875 C 18.5625 -10.300781 18.363281 -11.320312 17.96875 -11.9375 C 17.570312 -12.5625 16.976562 -12.875 16.1875 -12.875 C 15.632812 -12.875 15.050781 -12.671875 14.4375 -12.265625 C 13.832031 -11.859375 13.378906 -11.421875 13.078125 -10.953125 C 13.179688 -10.648438 13.234375 -9.957031 13.234375 -8.875 L 13.234375 0 L 10.5625 0 L 10.5625 -8.875 C 10.5625 -10.300781 10.363281 -11.320312 9.96875 -11.9375 C 9.570312 -12.5625 8.984375 -12.875 8.203125 -12.875 C 7.148438 -12.875 6.160156 -12.351562 5.234375 -11.3125 L 5.234375 0 L 2.578125 0 Z M 2.578125 -10.359375 "/></g></g></g><g fill="#000000" fill-opacity="1"><g transform="translate(183.725707, 329.266152)"><g><path d="M 2.578125 -10.359375 C 2.578125 -11.359375 2.4375 -12.097656 2.15625 -12.578125 C 1.882812 -13.066406 1.332031 -13.3125 0.5 -13.3125 L -0.09375 -13.3125 L -0.09375 -13.90625 L 2.578125 -13.90625 C 3.304688 -13.90625 3.863281 -13.804688 4.25 -13.609375 C 4.632812 -13.410156 4.914062 -13.113281 5.09375 -12.71875 L 5.234375 -12.71875 C 5.648438 -13.132812 6.1875 -13.484375 6.84375 -13.765625 C 7.507812 -14.054688 8.253906 -14.203125 9.078125 -14.203125 C 9.910156 -14.203125 10.625 -14.046875 11.21875 -13.734375 C 11.8125 -13.429688 12.285156 -12.898438 12.640625 -12.140625 C 13.148438 -12.785156 13.800781 -13.289062 14.59375 -13.65625 C 15.394531 -14.019531 16.222656 -14.203125 17.078125 -14.203125 C 18.335938 -14.203125 19.34375 -13.804688 20.09375 -13.015625 C 20.84375 -12.234375 21.21875 -10.851562 21.21875 -8.875 L 21.21875 0 L 18.5625 0 L 18.5625 -8.875 C 18.5625 -10.300781 18.363281 -11.320312 17.96875 -11.9375 C 17.570312 -12.5625 16.976562 -12.875 16.1875 -12.875 C 15.632812 -12.875 15.050781 -12.671875 14.4375 -12.265625 C 13.832031 -11.859375 13.378906 -11.421875 13.078125 -10.953125 C 13.179688 -10.648438 13.234375 -9.957031 13.234375 -8.875 L 13.234375 0 L 10.5625 0 L 10.5625 -8.875 C 10.5625 -10.300781 10.363281 -11.320312 9.96875 -11.9375 C 9.570312 -12.5625 8.984375 -12.875 8.203125 -12.875 C 7.148438 -12.875 6.160156 -12.351562 5.234375 -11.3125 L 5.234375 0 L 2.578125 0 Z M 2.578125 -10.359375 "/></g></g></g><g fill="#000000" fill-opacity="1"><g transform="translate(210.662657, 329.266152)"><g><path d="M 7.546875 0.296875 C 6.203125 0.296875 5.066406 -0.0195312 4.140625 -0.65625 C 3.210938 -1.300781 2.507812 -2.171875 2.03125 -3.265625 C 1.5625 -4.359375 1.328125 -5.585938 1.328125 -6.953125 C 1.328125 -8.296875 1.5625 -9.519531 2.03125 -10.625 C 2.507812 -11.726562 3.195312 -12.597656 4.09375 -13.234375 C 4.988281 -13.878906 6.039062 -14.203125 7.25 -14.203125 C 9.238281 -14.203125 10.722656 -13.644531 11.703125 -12.53125 C 12.679688 -11.414062 13.171875 -9.800781 13.171875 -7.6875 L 13.109375 -6.515625 L 4.140625 -6.515625 C 4.140625 -4.859375 4.492188 -3.503906 5.203125 -2.453125 C 5.921875 -1.410156 6.898438 -0.890625 8.140625 -0.890625 C 9.066406 -0.890625 9.847656 -1.085938 10.484375 -1.484375 C 11.128906 -1.878906 11.726562 -2.46875 12.28125 -3.25 L 12.875 -2.8125 C 12.21875 -1.726562 11.457031 -0.9375 10.59375 -0.4375 C 9.726562 0.0507812 8.710938 0.296875 7.546875 0.296875 Z M 10.359375 -7.6875 C 10.359375 -9.425781 10.097656 -10.75 9.578125 -11.65625 C 9.066406 -12.5625 8.289062 -13.015625 7.25 -13.015625 C 6.65625 -13.015625 6.117188 -12.78125 5.640625 -12.3125 C 5.171875 -11.851562 4.800781 -11.21875 4.53125 -10.40625 C 4.269531 -9.601562 4.140625 -8.695312 4.140625 -7.6875 Z M 10.359375 -7.6875 "/></g></g></g><g fill="#000000" fill-opacity="1"><g transform="translate(228.808156, 329.266152)"><g><path d="M 2.375 -10.359375 C 2.375 -11.359375 2.234375 -12.097656 1.953125 -12.578125 C 1.671875 -13.066406 1.117188 -13.3125 0.296875 -13.3125 L 0 -13.3125 L 0 -13.90625 L 2.375 -13.90625 C 3.113281 -13.90625 3.675781 -13.800781 4.0625 -13.59375 C 4.445312 -13.382812 4.722656 -13.046875 4.890625 -12.578125 L 5.03125 -12.578125 C 5.382812 -13.035156 5.863281 -13.421875 6.46875 -13.734375 C 7.070312 -14.046875 7.773438 -14.203125 8.578125 -14.203125 C 9.367188 -14.203125 9.960938 -14.054688 10.359375 -13.765625 C 10.691406 -13.503906 11.035156 -13.054688 11.390625 -12.421875 L 10.203125 -11.546875 C 9.992188 -11.835938 9.679688 -12.054688 9.265625 -12.203125 C 8.847656 -12.347656 8.375 -12.421875 7.84375 -12.421875 C 7.25 -12.421875 6.703125 -12.285156 6.203125 -12.015625 C 5.710938 -11.753906 5.320312 -11.398438 5.03125 -10.953125 L 5.03125 0 L 2.375 0 Z M 2.375 -10.359375 "/></g></g></g><g fill="#000000" fill-opacity="1"><g transform="translate(244.259962, 329.266152)"><g><path d="M 7.84375 0.296875 C 6.425781 0.296875 5.226562 -0.0195312 4.25 -0.65625 C 3.269531 -1.300781 2.535156 -2.171875 2.046875 -3.265625 C 1.566406 -4.359375 1.328125 -5.585938 1.328125 -6.953125 C 1.328125 -8.316406 1.566406 -9.546875 2.046875 -10.640625 C 2.535156 -11.734375 3.269531 -12.597656 4.25 -13.234375 C 5.226562 -13.878906 6.425781 -14.203125 7.84375 -14.203125 C 10.007812 -14.203125 11.441406 -13.859375 12.140625 -13.171875 C 12.472656 -12.835938 12.675781 -12.425781 12.75 -11.9375 C 12.832031 -11.457031 12.875 -10.585938 12.875 -9.328125 L 12.28125 -9.328125 C 12.195312 -10.546875 11.8125 -11.460938 11.125 -12.078125 C 10.4375 -12.703125 9.539062 -13.015625 8.4375 -13.015625 C 7.007812 -13.015625 5.9375 -12.453125 5.21875 -11.328125 C 4.5 -10.203125 4.140625 -8.742188 4.140625 -6.953125 C 4.140625 -5.160156 4.5 -3.703125 5.21875 -2.578125 C 5.9375 -1.453125 7.007812 -0.890625 8.4375 -0.890625 C 9.4375 -0.890625 10.257812 -1.082031 10.90625 -1.46875 C 11.5625 -1.851562 12.164062 -2.445312 12.71875 -3.25 L 13.3125 -2.8125 C 12.664062 -1.707031 11.894531 -0.910156 11 -0.421875 C 10.113281 0.0546875 9.0625 0.296875 7.84375 0.296875 Z M 7.84375 0.296875 "/></g></g></g><g fill="#000000" fill-opacity="1"><g transform="translate(262.25746, 329.266152)"><g><path d="M 7.546875 0.296875 C 6.203125 0.296875 5.066406 -0.0195312 4.140625 -0.65625 C 3.210938 -1.300781 2.507812 -2.171875 2.03125 -3.265625 C 1.5625 -4.359375 1.328125 -5.585938 1.328125 -6.953125 C 1.328125 -8.296875 1.5625 -9.519531 2.03125 -10.625 C 2.507812 -11.726562 3.195312 -12.597656 4.09375 -13.234375 C 4.988281 -13.878906 6.039062 -14.203125 7.25 -14.203125 C 9.238281 -14.203125 10.722656 -13.644531 11.703125 -12.53125 C 12.679688 -11.414062 13.171875 -9.800781 13.171875 -7.6875 L 13.109375 -6.515625 L 4.140625 -6.515625 C 4.140625 -4.859375 4.492188 -3.503906 5.203125 -2.453125 C 5.921875 -1.410156 6.898438 -0.890625 8.140625 -0.890625 C 9.066406 -0.890625 9.847656 -1.085938 10.484375 -1.484375 C 11.128906 -1.878906 11.726562 -2.46875 12.28125 -3.25 L 12.875 -2.8125 C 12.21875 -1.726562 11.457031 -0.9375 10.59375 -0.4375 C 9.726562 0.0507812 8.710938 0.296875 7.546875 0.296875 Z M 10.359375 -7.6875 C 10.359375 -9.425781 10.097656 -10.75 9.578125 -11.65625 C 9.066406 -12.5625 8.289062 -13.015625 7.25 -13.015625 C 6.65625 -13.015625 6.117188 -12.78125 5.640625 -12.3125 C 5.171875 -11.851562 4.800781 -11.21875 4.53125 -10.40625 C 4.269531 -9.601562 4.140625 -8.695312 4.140625 -7.6875 Z M 10.359375 -7.6875 "/></g></g></g></svg>